<svg xmlns="http://www.w3.org/2000/svg" xmlns:xlink="http://www.w3.org/1999/xlink" width="500" zoomAndPan="magnify" viewBox="0 0 375 374.999991" height="500" preserveAspectRatio="xMidYMid meet" version="1.0"><defs><g/></defs><rect x="-37.5" width="450" fill="#ffffff" y="-37.499999" height="449.999989" fill-opacity="1"/><rect x="-37.5" width="450" fill="#ffffff" y="-37.499999" height="449.999989" fill-opacity="1"/><path fill="#39b54a" d="M 174.929688 182.8125 C 171.890625 175.851562 167.378906 162.296875 171.8125 147.824219 C 179.085938 124.082031 207.621094 107.054688 241.964844 109.261719 C 246.523438 138.230469 235.285156 165.367188 214.109375 177.472656 C 199.847656 185.628906 185.070312 184.679688 178.070312 183.707031 C 185.238281 178.300781 193.28125 171.351562 201.320312 162.558594 C 213.730469 148.984375 222.015625 135.511719 227.496094 124.761719 C 219.621094 135.703125 210.15625 147.519531 198.847656 159.59375 C 190.6875 168.304688 182.628906 176.015625 174.929688 182.8125 Z M 174.929688 182.8125 " fill-opacity="1" fill-rule="nonzero"/><path fill="#39b54a" d="M 165.773438 183.570312 C 160.414062 185.183594 150.101562 187.304688 139.875 182.851562 C 123.097656 175.546875 113.054688 153.371094 117.597656 128.617188 C 139.210938 127.773438 158.132812 138.246094 165.199219 154.65625 C 169.960938 165.710938 168.003906 176.363281 166.695312 181.363281 C 163.34375 175.699219 158.941406 169.265625 153.179688 162.675781 C 144.292969 152.507812 135.132812 145.339844 127.722656 140.445312 C 135.066406 147.097656 142.917969 154.976562 150.800781 164.21875 C 156.488281 170.890625 161.449219 177.398438 165.773438 183.570312 Z M 165.773438 183.570312 " fill-opacity="1" fill-rule="nonzero"/><g fill="#3d3d3d" fill-opacity="1"><g transform="translate(43.603877, 222.718243)"><g><path d="M 3.46875 0 L 3.46875 -44.859375 L 24.640625 -44.859375 C 28.117188 -44.859375 31.160156 -44.238281 33.765625 -43 C 36.367188 -41.757812 38.394531 -40.023438 39.84375 -37.796875 C 41.289062 -35.578125 42.015625 -32.972656 42.015625 -29.984375 C 42.015625 -27.003906 41.289062 -24.390625 39.84375 -22.140625 C 38.394531 -19.898438 36.359375 -18.160156 33.734375 -16.921875 C 31.109375 -15.679688 28.03125 -15.0625 24.5 -15.0625 L 14.171875 -15.0625 L 14.171875 0 Z M 14.171875 -23.0625 L 22.9375 -23.0625 C 25.457031 -23.0625 27.472656 -23.703125 28.984375 -24.984375 C 30.492188 -26.265625 31.25 -27.929688 31.25 -29.984375 C 31.25 -32.085938 30.503906 -33.769531 29.015625 -35.03125 C 27.523438 -36.289062 25.5 -36.921875 22.9375 -36.921875 L 14.171875 -36.921875 Z M 14.171875 -23.0625 "/></g></g></g><g fill="#3d3d3d" fill-opacity="1"><g transform="translate(85.498926, 222.718243)"><g><path d="M 2.515625 0 L 2.515625 -46.75 L 12.15625 -46.75 L 12.15625 0 Z M 2.515625 0 "/></g></g></g><g fill="#3d3d3d" fill-opacity="1"><g transform="translate(98.791942, 222.718243)"><g><path d="M 12.46875 0.9375 C 9.113281 0.9375 6.351562 0.0976562 4.1875 -1.578125 C 2.019531 -3.253906 0.9375 -5.476562 0.9375 -8.25 C 0.9375 -11.019531 2.132812 -13.347656 4.53125 -15.234375 C 6.925781 -17.128906 10.539062 -18.332031 15.375 -18.84375 L 21.609375 -19.59375 C 22.367188 -19.675781 22.976562 -19.914062 23.4375 -20.3125 C 23.894531 -20.71875 24.125 -21.253906 24.125 -21.921875 C 24.125 -23.304688 23.578125 -24.414062 22.484375 -25.25 C 21.398438 -26.09375 19.992188 -26.515625 18.265625 -26.515625 C 16.335938 -26.515625 14.742188 -25.914062 13.484375 -24.71875 C 12.222656 -23.53125 11.507812 -22.132812 11.34375 -20.53125 L 1.953125 -21.984375 C 2.160156 -24.210938 2.945312 -26.195312 4.3125 -27.9375 C 5.675781 -29.6875 7.535156 -31.050781 9.890625 -32.03125 C 12.242188 -33.019531 14.953125 -33.515625 18.015625 -33.515625 C 22.765625 -33.515625 26.546875 -32.347656 29.359375 -30.015625 C 32.171875 -27.679688 33.578125 -24.5 33.578125 -20.46875 L 33.578125 -8 C 33.578125 -6.445312 34.125 -5.671875 35.21875 -5.671875 C 36.144531 -5.671875 36.984375 -6.15625 37.734375 -7.125 L 40 -2.015625 C 39.039062 -1.046875 37.789062 -0.3125 36.25 0.1875 C 34.71875 0.6875 33.21875 0.9375 31.75 0.9375 C 29.820312 0.9375 28.164062 0.414062 26.78125 -0.625 C 25.394531 -1.675781 24.59375 -2.9375 24.375 -4.40625 L 24.25 -5.546875 L 24.1875 -5.546875 C 23.132812 -3.609375 21.597656 -2.039062 19.578125 -0.84375 C 17.566406 0.34375 15.195312 0.9375 12.46875 0.9375 Z M 16.125 -5.671875 C 18.394531 -5.671875 20.265625 -6.375 21.734375 -7.78125 C 23.203125 -9.1875 23.9375 -10.984375 23.9375 -13.171875 L 23.9375 -14.484375 L 17.765625 -13.796875 C 15.078125 -13.503906 13.207031 -12.957031 12.15625 -12.15625 C 11.101562 -11.363281 10.578125 -10.441406 10.578125 -9.390625 C 10.578125 -8.296875 11.101562 -7.398438 12.15625 -6.703125 C 13.207031 -6.015625 14.53125 -5.671875 16.125 -5.671875 Z M 16.125 -5.671875 "/></g></g></g><g fill="#3d3d3d" fill-opacity="1"><g transform="translate(137.410994, 222.718243)"><g><path d="M 23.625 -33.203125 C 26.945312 -33.203125 29.550781 -32.234375 31.4375 -30.296875 C 33.320312 -28.367188 34.265625 -25.679688 34.265625 -22.234375 L 34.265625 0 L 24.640625 0 L 24.640625 -19.28125 C 24.640625 -21.125 24.15625 -22.570312 23.1875 -23.625 C 22.21875 -24.675781 20.894531 -25.203125 19.21875 -25.203125 C 17.15625 -25.203125 15.460938 -24.53125 14.140625 -23.1875 C 12.816406 -21.84375 12.15625 -20.054688 12.15625 -17.828125 L 12.15625 0 L 2.515625 0 L 2.515625 -32.25 L 10.640625 -32.25 L 12.09375 -26.390625 L 12.15625 -26.390625 C 13.332031 -28.578125 14.894531 -30.257812 16.84375 -31.4375 C 18.800781 -32.613281 21.0625 -33.203125 23.625 -33.203125 Z M 23.625 -33.203125 "/></g></g></g><g fill="#3d3d3d" fill-opacity="1"><g transform="translate(172.628038, 222.718243)"><g><path d="M 18.90625 1.265625 C 15.039062 1.265625 11.984375 0.191406 9.734375 -1.953125 C 7.484375 -4.097656 6.359375 -6.992188 6.359375 -10.640625 L 6.359375 -24.953125 L 0.3125 -24.953125 L 0.3125 -32.25 L 6.359375 -32.25 L 6.359375 -41.140625 L 16 -43.21875 L 16 -32.25 L 28.796875 -32.25 L 28.796875 -24.953125 L 16 -24.953125 L 16 -12.15625 C 16 -10.394531 16.484375 -9.007812 17.453125 -8 C 18.421875 -6.988281 19.617188 -6.484375 21.046875 -6.484375 C 23.898438 -6.484375 26.082031 -7.867188 27.59375 -10.640625 L 30.484375 -4.59375 C 29.359375 -2.789062 27.734375 -1.363281 25.609375 -0.3125 C 23.484375 0.738281 21.25 1.265625 18.90625 1.265625 Z M 18.90625 1.265625 "/></g></g></g><g fill="#3d3d3d" fill-opacity="1"><g transform="translate(202.49009, 222.718243)"><g><path d="M 19.34375 1.265625 C 15.769531 1.265625 12.640625 0.550781 9.953125 -0.875 C 7.265625 -2.3125 5.175781 -4.34375 3.6875 -6.96875 C 2.195312 -9.59375 1.453125 -12.644531 1.453125 -16.125 C 1.453125 -19.65625 2.195312 -22.722656 3.6875 -25.328125 C 5.175781 -27.929688 7.265625 -29.945312 9.953125 -31.375 C 12.640625 -32.800781 15.769531 -33.515625 19.34375 -33.515625 C 22.957031 -33.515625 26.109375 -32.800781 28.796875 -31.375 C 31.484375 -29.945312 33.570312 -27.929688 35.0625 -25.328125 C 36.550781 -22.722656 37.296875 -19.65625 37.296875 -16.125 C 37.296875 -12.644531 36.550781 -9.59375 35.0625 -6.96875 C 33.570312 -4.34375 31.484375 -2.3125 28.796875 -0.875 C 26.109375 0.550781 22.957031 1.265625 19.34375 1.265625 Z M 19.34375 -6.734375 C 21.945312 -6.734375 24.003906 -7.570312 25.515625 -9.25 C 27.023438 -10.9375 27.78125 -13.226562 27.78125 -16.125 C 27.78125 -19.019531 27.023438 -21.304688 25.515625 -22.984375 C 24.003906 -24.671875 21.945312 -25.515625 19.34375 -25.515625 C 16.78125 -25.515625 14.734375 -24.671875 13.203125 -22.984375 C 11.671875 -21.304688 10.90625 -19.019531 10.90625 -16.125 C 10.90625 -13.226562 11.671875 -10.9375 13.203125 -9.25 C 14.734375 -7.570312 16.78125 -6.734375 19.34375 -6.734375 Z M 19.34375 -6.734375 "/></g></g></g><g fill="#3d3d3d" fill-opacity="1"><g transform="translate(239.786131, 222.718243)"><g><path d="M 2.515625 13.234375 L 2.515625 -32.25 L 10.578125 -32.25 L 12.03125 -26.078125 L 12.09375 -26.078125 C 14.40625 -30.828125 18.164062 -33.203125 23.375 -33.203125 C 26.1875 -33.203125 28.671875 -32.488281 30.828125 -31.0625 C 32.992188 -29.632812 34.6875 -27.648438 35.90625 -25.109375 C 37.125 -22.566406 37.734375 -19.570312 37.734375 -16.125 C 37.734375 -12.726562 37.125 -9.75 35.90625 -7.1875 C 34.6875 -4.625 32.992188 -2.628906 30.828125 -1.203125 C 28.671875 0.222656 26.1875 0.9375 23.375 0.9375 C 18.25 0.9375 14.53125 -1.429688 12.21875 -6.171875 L 12.15625 -6.171875 L 12.15625 13.234375 Z M 19.90625 -7.25 C 22.300781 -7.25 24.265625 -8.097656 25.796875 -9.796875 C 27.328125 -11.492188 28.09375 -13.601562 28.09375 -16.125 C 28.09375 -18.726562 27.328125 -20.867188 25.796875 -22.546875 C 24.265625 -24.234375 22.300781 -25.078125 19.90625 -25.078125 C 17.550781 -25.078125 15.609375 -24.222656 14.078125 -22.515625 C 12.546875 -20.816406 11.78125 -18.6875 11.78125 -16.125 C 11.78125 -13.601562 12.546875 -11.492188 14.078125 -9.796875 C 15.609375 -8.097656 17.550781 -7.25 19.90625 -7.25 Z M 19.90625 -7.25 "/></g></g></g><g fill="#3d3d3d" fill-opacity="1"><g transform="translate(277.586169, 222.718243)"><g><path d="M 7.5625 -36.671875 C 5.882812 -36.671875 4.519531 -37.171875 3.46875 -38.171875 C 2.414062 -39.179688 1.890625 -40.503906 1.890625 -42.140625 C 1.890625 -43.828125 2.414062 -45.171875 3.46875 -46.171875 C 4.519531 -47.179688 5.882812 -47.6875 7.5625 -47.6875 C 9.28125 -47.6875 10.664062 -47.179688 11.71875 -46.171875 C 12.769531 -45.171875 13.296875 -43.828125 13.296875 -42.140625 C 13.296875 -40.503906 12.769531 -39.179688 11.71875 -38.171875 C 10.664062 -37.171875 9.28125 -36.671875 7.5625 -36.671875 Z M 2.765625 0 L 2.765625 -32.25 L 12.34375 -32.25 L 12.34375 0 Z M 2.765625 0 "/></g></g></g><g fill="#3d3d3d" fill-opacity="1"><g transform="translate(291.383189, 222.718243)"><g><path d="M 12.46875 0.9375 C 9.113281 0.9375 6.351562 0.0976562 4.1875 -1.578125 C 2.019531 -3.253906 0.9375 -5.476562 0.9375 -8.25 C 0.9375 -11.019531 2.132812 -13.347656 4.53125 -15.234375 C 6.925781 -17.128906 10.539062 -18.332031 15.375 -18.84375 L 21.609375 -19.59375 C 22.367188 -19.675781 22.976562 -19.914062 23.4375 -20.3125 C 23.894531 -20.71875 24.125 -21.253906 24.125 -21.921875 C 24.125 -23.304688 23.578125 -24.414062 22.484375 -25.25 C 21.398438 -26.09375 19.992188 -26.515625 18.265625 -26.515625 C 16.335938 -26.515625 14.742188 -25.914062 13.484375 -24.71875 C 12.222656 -23.53125 11.507812 -22.132812 11.34375 -20.53125 L 1.953125 -21.984375 C 2.160156 -24.210938 2.945312 -26.195312 4.3125 -27.9375 C 5.675781 -29.6875 7.535156 -31.050781 9.890625 -32.03125 C 12.242188 -33.019531 14.953125 -33.515625 18.015625 -33.515625 C 22.765625 -33.515625 26.546875 -32.347656 29.359375 -30.015625 C 32.171875 -27.679688 33.578125 -24.5 33.578125 -20.46875 L 33.578125 -8 C 33.578125 -6.445312 34.125 -5.671875 35.21875 -5.671875 C 36.144531 -5.671875 36.984375 -6.15625 37.734375 -7.125 L 40 -2.015625 C 39.039062 -1.046875 37.789062 -0.3125 36.25 0.1875 C 34.71875 0.6875 33.21875 0.9375 31.75 0.9375 C 29.820312 0.9375 28.164062 0.414062 26.78125 -0.625 C 25.394531 -1.675781 24.59375 -2.9375 24.375 -4.40625 L 24.25 -5.546875 L 24.1875 -5.546875 C 23.132812 -3.609375 21.597656 -2.039062 19.578125 -0.84375 C 17.566406 0.34375 15.195312 0.9375 12.46875 0.9375 Z M 16.125 -5.671875 C 18.394531 -5.671875 20.265625 -6.375 21.734375 -7.78125 C 23.203125 -9.1875 23.9375 -10.984375 23.9375 -13.171875 L 23.9375 -14.484375 L 17.765625 -13.796875 C 15.078125 -13.503906 13.207031 -12.957031 12.15625 -12.15625 C 11.101562 -11.363281 10.578125 -10.441406 10.578125 -9.390625 C 10.578125 -8.296875 11.101562 -7.398438 12.15625 -6.703125 C 13.207031 -6.015625 14.53125 -5.671875 16.125 -5.671875 Z M 16.125 -5.671875 "/></g></g></g><g fill="#39b54a" fill-opacity="1"><g transform="translate(47.641562, 238.847084)"><g><path d="M 0.59375 0 L 0.59375 -7.625 L 4.1875 -7.625 C 4.78125 -7.625 5.296875 -7.519531 5.734375 -7.3125 C 6.179688 -7.101562 6.53125 -6.804688 6.78125 -6.421875 C 7.03125 -6.046875 7.15625 -5.609375 7.15625 -5.109375 C 7.15625 -4.597656 7.03125 -4.148438 6.78125 -3.765625 C 6.53125 -3.378906 6.179688 -3.082031 5.734375 -2.875 C 5.285156 -2.664062 4.765625 -2.5625 4.171875 -2.5625 L 2.40625 -2.5625 L 2.40625 0 Z M 2.40625 -3.921875 L 3.90625 -3.921875 C 4.332031 -3.921875 4.671875 -4.03125 4.921875 -4.25 C 5.179688 -4.46875 5.3125 -4.753906 5.3125 -5.109375 C 5.3125 -5.460938 5.1875 -5.742188 4.9375 -5.953125 C 4.6875 -6.171875 4.34375 -6.28125 3.90625 -6.28125 L 2.40625 -6.28125 Z M 2.40625 -3.921875 "/></g></g></g><g fill="#39b54a" fill-opacity="1"><g transform="translate(57.897371, 238.847084)"><g><path d="M 0.59375 0 L 0.59375 -7.625 L 2.421875 -7.625 L 2.421875 -1.578125 L 5.59375 -1.578125 L 5.59375 0 Z M 0.59375 0 "/></g></g></g><g fill="#39b54a" fill-opacity="1"><g transform="translate(66.545945, 238.847084)"><g><path d="M 0.046875 0 L 2.8125 -7.625 L 5.0625 -7.625 L 7.8125 0 L 5.890625 0 L 5.40625 -1.5 L 2.46875 -1.5 L 1.96875 0 Z M 2.796875 -2.796875 L 5.0625 -2.796875 L 3.9375 -6.1875 L 3.921875 -6.1875 Z M 2.796875 -2.796875 "/></g></g></g><g fill="#39b54a" fill-opacity="1"><g transform="translate(77.305348, 238.847084)"><g><path d="M 0.59375 0 L 0.59375 -7.625 L 2.734375 -7.625 L 5.84375 -2.203125 L 5.859375 -2.203125 L 5.859375 -7.625 L 7.59375 -7.625 L 7.59375 0 L 5.4375 0 L 2.34375 -5.421875 L 2.3125 -5.421875 L 2.3125 0 Z M 0.59375 0 "/></g></g></g><g fill="#39b54a" fill-opacity="1"><g transform="translate(88.386201, 238.847084)"><g><path d="M 2.4375 0 L 2.4375 -6.0625 L 0.15625 -6.0625 L 0.15625 -7.625 L 6.5625 -7.625 L 6.5625 -6.0625 L 4.28125 -6.0625 L 4.28125 0 Z M 2.4375 0 "/></g></g></g><g fill="#39b54a" fill-opacity="1"><g transform="translate(97.999112, 238.847084)"><g><path d="M 0.328125 1.671875 L 0.421875 1.28125 C 0.835938 1.382812 1.191406 1.304688 1.484375 1.046875 C 1.773438 0.796875 1.9375 0.429688 1.96875 -0.046875 C 1.695312 0.0859375 1.445312 0.132812 1.21875 0.09375 C 0.988281 0.0507812 0.800781 -0.046875 0.65625 -0.203125 C 0.507812 -0.367188 0.4375 -0.570312 0.4375 -0.8125 C 0.4375 -1.082031 0.523438 -1.304688 0.703125 -1.484375 C 0.878906 -1.660156 1.101562 -1.75 1.375 -1.75 C 1.675781 -1.75 1.921875 -1.625 2.109375 -1.375 C 2.296875 -1.125 2.394531 -0.773438 2.40625 -0.328125 C 2.40625 0.148438 2.316406 0.554688 2.140625 0.890625 C 1.960938 1.222656 1.71875 1.457031 1.40625 1.59375 C 1.09375 1.738281 0.734375 1.765625 0.328125 1.671875 Z M 0.328125 1.671875 "/></g></g></g><g fill="#39b54a" fill-opacity="1"><g transform="translate(103.615366, 238.847084)"><g/></g></g><g fill="#39b54a" fill-opacity="1"><g transform="translate(108.878029, 238.847084)"><g><path d="M 4.453125 0.265625 C 3.609375 0.265625 2.878906 0.0976562 2.265625 -0.234375 C 1.648438 -0.566406 1.171875 -1.035156 0.828125 -1.640625 C 0.492188 -2.253906 0.328125 -2.976562 0.328125 -3.8125 C 0.328125 -4.644531 0.484375 -5.367188 0.796875 -5.984375 C 1.117188 -6.597656 1.578125 -7.070312 2.171875 -7.40625 C 2.765625 -7.738281 3.457031 -7.90625 4.25 -7.90625 C 4.882812 -7.90625 5.445312 -7.789062 5.9375 -7.5625 C 6.4375 -7.332031 6.847656 -7.003906 7.171875 -6.578125 C 7.492188 -6.160156 7.695312 -5.660156 7.78125 -5.078125 L 6.109375 -4.65625 C 6.015625 -5.175781 5.804688 -5.582031 5.484375 -5.875 C 5.160156 -6.175781 4.75 -6.328125 4.25 -6.328125 C 3.613281 -6.328125 3.101562 -6.097656 2.71875 -5.640625 C 2.34375 -5.191406 2.15625 -4.582031 2.15625 -3.8125 C 2.164062 -3.050781 2.378906 -2.441406 2.796875 -1.984375 C 3.210938 -1.535156 3.773438 -1.3125 4.484375 -1.3125 C 5.066406 -1.3125 5.554688 -1.488281 5.953125 -1.84375 C 6.359375 -2.195312 6.609375 -2.675781 6.703125 -3.28125 L 8.421875 -3.046875 C 8.335938 -2.367188 8.117188 -1.78125 7.765625 -1.28125 C 7.421875 -0.789062 6.960938 -0.410156 6.390625 -0.140625 C 5.828125 0.128906 5.179688 0.265625 4.453125 0.265625 Z M 4.453125 0.265625 "/></g></g></g><g fill="#39b54a" fill-opacity="1"><g transform="translate(120.366051, 238.847084)"><g><path d="M 0.046875 0 L 2.8125 -7.625 L 5.0625 -7.625 L 7.8125 0 L 5.890625 0 L 5.40625 -1.5 L 2.46875 -1.5 L 1.96875 0 Z M 2.796875 -2.796875 L 5.0625 -2.796875 L 3.9375 -6.1875 L 3.921875 -6.1875 Z M 2.796875 -2.796875 "/></g></g></g><g fill="#39b54a" fill-opacity="1"><g transform="translate(131.125451, 238.847084)"><g><path d="M 6.296875 0.1875 C 5.910156 0.1875 5.59375 0.0820312 5.34375 -0.125 C 5.09375 -0.332031 4.910156 -0.613281 4.796875 -0.96875 L 4.46875 -2.09375 C 4.40625 -2.320312 4.296875 -2.507812 4.140625 -2.65625 C 3.992188 -2.8125 3.8125 -2.890625 3.59375 -2.890625 L 2.421875 -2.890625 L 2.421875 0 L 0.59375 0 L 0.59375 -7.625 L 4.390625 -7.625 C 5.296875 -7.625 6.007812 -7.410156 6.53125 -6.984375 C 7.0625 -6.566406 7.328125 -6 7.328125 -5.28125 C 7.328125 -4.769531 7.164062 -4.332031 6.84375 -3.96875 C 6.519531 -3.601562 6.078125 -3.347656 5.515625 -3.203125 L 5.515625 -3.1875 C 5.710938 -3.113281 5.867188 -3 5.984375 -2.84375 C 6.097656 -2.695312 6.1875 -2.515625 6.25 -2.296875 L 6.5 -1.390625 C 6.53125 -1.273438 6.578125 -1.175781 6.640625 -1.09375 C 6.710938 -1.019531 6.804688 -0.984375 6.921875 -0.984375 C 7.023438 -0.984375 7.125 -1.007812 7.21875 -1.0625 C 7.3125 -1.125 7.390625 -1.203125 7.453125 -1.296875 L 7.84375 -0.421875 C 7.65625 -0.242188 7.425781 -0.0976562 7.15625 0.015625 C 6.882812 0.128906 6.597656 0.1875 6.296875 0.1875 Z M 2.421875 -4.140625 L 4.140625 -4.140625 C 4.554688 -4.140625 4.882812 -4.234375 5.125 -4.421875 C 5.363281 -4.617188 5.484375 -4.878906 5.484375 -5.203125 C 5.484375 -5.523438 5.363281 -5.785156 5.125 -5.984375 C 4.882812 -6.179688 4.554688 -6.28125 4.140625 -6.28125 L 2.421875 -6.28125 Z M 2.421875 -4.140625 "/></g></g></g><g fill="#39b54a" fill-opacity="1"><g transform="translate(141.917005, 238.847084)"><g><path d="M 0.59375 0 L 0.59375 -7.625 L 5.953125 -7.625 L 5.953125 -6.171875 L 2.359375 -6.171875 L 2.359375 -4.5625 L 5.53125 -4.5625 L 5.53125 -3.265625 L 2.359375 -3.265625 L 2.359375 -1.46875 L 6.0625 -1.46875 L 6.0625 0 Z M 0.59375 0 "/></g></g></g><g fill="#39b54a" fill-opacity="1"><g transform="translate(151.112039, 238.847084)"><g><path d="M 0.328125 1.671875 L 0.421875 1.28125 C 0.835938 1.382812 1.191406 1.304688 1.484375 1.046875 C 1.773438 0.796875 1.9375 0.429688 1.96875 -0.046875 C 1.695312 0.0859375 1.445312 0.132812 1.21875 0.09375 C 0.988281 0.0507812 0.800781 -0.046875 0.65625 -0.203125 C 0.507812 -0.367188 0.4375 -0.570312 0.4375 -0.8125 C 0.4375 -1.082031 0.523438 -1.304688 0.703125 -1.484375 C 0.878906 -1.660156 1.101562 -1.75 1.375 -1.75 C 1.675781 -1.75 1.921875 -1.625 2.109375 -1.375 C 2.296875 -1.125 2.394531 -0.773438 2.40625 -0.328125 C 2.40625 0.148438 2.316406 0.554688 2.140625 0.890625 C 1.960938 1.222656 1.71875 1.457031 1.40625 1.59375 C 1.09375 1.738281 0.734375 1.765625 0.328125 1.671875 Z M 0.328125 1.671875 "/></g></g></g><g fill="#39b54a" fill-opacity="1"><g transform="translate(156.728293, 238.847084)"><g/></g></g><g fill="#39b54a" fill-opacity="1"><g transform="translate(161.990956, 238.847084)"><g><path d="M 4.453125 0.265625 C 3.609375 0.265625 2.878906 0.0976562 2.265625 -0.234375 C 1.648438 -0.566406 1.171875 -1.035156 0.828125 -1.640625 C 0.492188 -2.253906 0.328125 -2.976562 0.328125 -3.8125 C 0.328125 -4.644531 0.484375 -5.367188 0.796875 -5.984375 C 1.117188 -6.597656 1.578125 -7.070312 2.171875 -7.40625 C 2.765625 -7.738281 3.457031 -7.90625 4.25 -7.90625 C 4.882812 -7.90625 5.445312 -7.789062 5.9375 -7.5625 C 6.4375 -7.332031 6.847656 -7.003906 7.171875 -6.578125 C 7.492188 -6.160156 7.695312 -5.660156 7.78125 -5.078125 L 6.109375 -4.65625 C 6.015625 -5.175781 5.804688 -5.582031 5.484375 -5.875 C 5.160156 -6.175781 4.75 -6.328125 4.25 -6.328125 C 3.613281 -6.328125 3.101562 -6.097656 2.71875 -5.640625 C 2.34375 -5.191406 2.15625 -4.582031 2.15625 -3.8125 C 2.164062 -3.050781 2.378906 -2.441406 2.796875 -1.984375 C 3.210938 -1.535156 3.773438 -1.3125 4.484375 -1.3125 C 5.066406 -1.3125 5.554688 -1.488281 5.953125 -1.84375 C 6.359375 -2.195312 6.609375 -2.675781 6.703125 -3.28125 L 8.421875 -3.046875 C 8.335938 -2.367188 8.117188 -1.78125 7.765625 -1.28125 C 7.421875 -0.789062 6.960938 -0.410156 6.390625 -0.140625 C 5.828125 0.128906 5.179688 0.265625 4.453125 0.265625 Z M 4.453125 0.265625 "/></g></g></g><g fill="#39b54a" fill-opacity="1"><g transform="translate(173.478978, 238.847084)"><g><path d="M 4.546875 0.265625 C 3.691406 0.265625 2.945312 0.0976562 2.3125 -0.234375 C 1.6875 -0.578125 1.195312 -1.050781 0.84375 -1.65625 C 0.5 -2.269531 0.328125 -2.988281 0.328125 -3.8125 C 0.328125 -4.632812 0.5 -5.347656 0.84375 -5.953125 C 1.195312 -6.566406 1.6875 -7.046875 2.3125 -7.390625 C 2.945312 -7.734375 3.691406 -7.90625 4.546875 -7.90625 C 5.398438 -7.90625 6.144531 -7.734375 6.78125 -7.390625 C 7.414062 -7.046875 7.90625 -6.566406 8.25 -5.953125 C 8.601562 -5.347656 8.78125 -4.632812 8.78125 -3.8125 C 8.78125 -2.988281 8.601562 -2.269531 8.25 -1.65625 C 7.90625 -1.050781 7.414062 -0.578125 6.78125 -0.234375 C 6.144531 0.0976562 5.398438 0.265625 4.546875 0.265625 Z M 4.546875 -1.3125 C 5.035156 -1.3125 5.457031 -1.410156 5.8125 -1.609375 C 6.175781 -1.816406 6.457031 -2.109375 6.65625 -2.484375 C 6.851562 -2.867188 6.953125 -3.3125 6.953125 -3.8125 C 6.953125 -4.320312 6.851562 -4.765625 6.65625 -5.140625 C 6.457031 -5.523438 6.175781 -5.816406 5.8125 -6.015625 C 5.457031 -6.222656 5.035156 -6.328125 4.546875 -6.328125 C 4.066406 -6.328125 3.644531 -6.222656 3.28125 -6.015625 C 2.925781 -5.816406 2.648438 -5.523438 2.453125 -5.140625 C 2.253906 -4.765625 2.15625 -4.320312 2.15625 -3.8125 C 2.15625 -3.3125 2.253906 -2.867188 2.453125 -2.484375 C 2.648438 -2.109375 2.925781 -1.816406 3.28125 -1.609375 C 3.644531 -1.410156 4.066406 -1.3125 4.546875 -1.3125 Z M 4.546875 -1.3125 "/></g></g></g><g fill="#39b54a" fill-opacity="1"><g transform="translate(185.470593, 238.847084)"><g><path d="M 0.59375 0 L 0.59375 -7.625 L 2.734375 -7.625 L 5.84375 -2.203125 L 5.859375 -2.203125 L 5.859375 -7.625 L 7.59375 -7.625 L 7.59375 0 L 5.4375 0 L 2.34375 -5.421875 L 2.3125 -5.421875 L 2.3125 0 Z M 0.59375 0 "/></g></g></g><g fill="#39b54a" fill-opacity="1"><g transform="translate(196.551446, 238.847084)"><g><path d="M 0.59375 0 L 0.59375 -7.625 L 2.734375 -7.625 L 5.84375 -2.203125 L 5.859375 -2.203125 L 5.859375 -7.625 L 7.59375 -7.625 L 7.59375 0 L 5.4375 0 L 2.34375 -5.421875 L 2.3125 -5.421875 L 2.3125 0 Z M 0.59375 0 "/></g></g></g><g fill="#39b54a" fill-opacity="1"><g transform="translate(207.632299, 238.847084)"><g><path d="M 0.59375 0 L 0.59375 -7.625 L 5.953125 -7.625 L 5.953125 -6.171875 L 2.359375 -6.171875 L 2.359375 -4.5625 L 5.53125 -4.5625 L 5.53125 -3.265625 L 2.359375 -3.265625 L 2.359375 -1.46875 L 6.0625 -1.46875 L 6.0625 0 Z M 0.59375 0 "/></g></g></g><g fill="#39b54a" fill-opacity="1"><g transform="translate(216.827333, 238.847084)"><g><path d="M 4.453125 0.265625 C 3.609375 0.265625 2.878906 0.0976562 2.265625 -0.234375 C 1.648438 -0.566406 1.171875 -1.035156 0.828125 -1.640625 C 0.492188 -2.253906 0.328125 -2.976562 0.328125 -3.8125 C 0.328125 -4.644531 0.484375 -5.367188 0.796875 -5.984375 C 1.117188 -6.597656 1.578125 -7.070312 2.171875 -7.40625 C 2.765625 -7.738281 3.457031 -7.90625 4.25 -7.90625 C 4.882812 -7.90625 5.445312 -7.789062 5.9375 -7.5625 C 6.4375 -7.332031 6.847656 -7.003906 7.171875 -6.578125 C 7.492188 -6.160156 7.695312 -5.660156 7.78125 -5.078125 L 6.109375 -4.65625 C 6.015625 -5.175781 5.804688 -5.582031 5.484375 -5.875 C 5.160156 -6.175781 4.75 -6.328125 4.25 -6.328125 C 3.613281 -6.328125 3.101562 -6.097656 2.71875 -5.640625 C 2.34375 -5.191406 2.15625 -4.582031 2.15625 -3.8125 C 2.164062 -3.050781 2.378906 -2.441406 2.796875 -1.984375 C 3.210938 -1.535156 3.773438 -1.3125 4.484375 -1.3125 C 5.066406 -1.3125 5.554688 -1.488281 5.953125 -1.84375 C 6.359375 -2.195312 6.609375 -2.675781 6.703125 -3.28125 L 8.421875 -3.046875 C 8.335938 -2.367188 8.117188 -1.78125 7.765625 -1.28125 C 7.421875 -0.789062 6.960938 -0.410156 6.390625 -0.140625 C 5.828125 0.128906 5.179688 0.265625 4.453125 0.265625 Z M 4.453125 0.265625 "/></g></g></g><g fill="#39b54a" fill-opacity="1"><g transform="translate(228.315355, 238.847084)"><g><path d="M 2.4375 0 L 2.4375 -6.0625 L 0.15625 -6.0625 L 0.15625 -7.625 L 6.5625 -7.625 L 6.5625 -6.0625 L 4.28125 -6.0625 L 4.28125 0 Z M 2.4375 0 "/></g></g></g></svg>