<?xml version="1.0" standalone="no"?>
<!DOCTYPE svg PUBLIC "-//W3C//DTD SVG 20010904//EN"
 "http://www.w3.org/TR/2001/REC-SVG-20010904/DTD/svg10.dtd">
<svg version="1.0" xmlns="http://www.w3.org/2000/svg"
 width="300.000000pt" height="300.000000pt" viewBox="0 0 300.000000 300.000000"
 preserveAspectRatio="xMidYMid meet">
<metadata>
Created by potrace 1.10, written by Peter Selinger 2001-2011
</metadata>
<g transform="translate(0.000000,300.000000) scale(0.100000,-0.100000)"
fill="#000000" stroke="none">
<path d="M1800 2120 c-243 -33 -420 -183 -437 -368 -5 -59 20 -212 35 -212 11
0 234 228 290 297 57 70 116 153 108 153 -9 0 -80 -73 -108 -110 -15 -19 -80
-91 -146 -160 -142 -148 -147 -148 -146 -12 0 67 5 97 21 132 64 137 220 232
404 247 l77 6 7 -41 c13 -80 -23 -231 -76 -314 -59 -91 -167 -164 -254 -170
-22 -2 -45 -10 -52 -18 -8 -10 -12 -11 -13 -3 0 7 21 32 47 55 74 68 164 179
217 266 60 101 56 132 -6 37 -93 -144 -285 -355 -324 -355 -12 0 -15 -9 -12
-37 3 -35 1 -38 -22 -38 -14 0 -25 -6 -24 -12 1 -7 2 -20 3 -28 0 -8 11 -15
24 -15 21 0 22 -4 22 -81 0 -76 2 -82 28 -105 35 -30 104 -33 137 -6 17 14 20
23 15 45 -7 26 -9 27 -24 12 -21 -18 -52 -20 -69 -3 -7 7 -12 39 -12 75 l0 63
50 0 c49 0 50 0 50 31 l0 32 -50 -6 c-50 -6 -50 -6 -50 22 0 27 2 28 60 34
214 23 377 249 368 510 l-3 82 -40 1 c-22 1 -65 -2 -95 -6z m-310 -656 c11
-12 11 -18 -2 -31 -19 -18 -38 -10 -38 16 0 33 20 40 40 15z"/>
<path d="M934 1924 c-3 -25 -1 -78 5 -117 22 -134 76 -219 169 -264 49 -24 67
-28 131 -26 41 2 76 5 79 7 12 13 -200 265 -258 306 -45 32 -36 11 21 -50 27
-30 62 -68 77 -85 33 -37 102 -130 102 -139 0 -3 -21 -6 -46 -6 -149 0 -259
160 -245 358 3 52 159 14 247 -62 45 -39 94 -127 94 -171 0 -25 -5 -22 -67 46
-66 70 -175 159 -196 159 -5 0 37 -45 94 -99 57 -55 122 -126 144 -160 22 -33
43 -61 48 -61 4 0 7 31 7 70 0 125 -56 221 -164 285 -48 28 -145 55 -197 55
-37 0 -38 -1 -45 -46z"/>
<path d="M710 1595 c-1 0 -2 -84 -3 -188 l-2 -187 38 0 37 0 0 188 0 187 -35
0 c-19 0 -35 0 -35 0z"/>
<path d="M2247 1593 c-15 -14 -7 -63 12 -73 39 -20 82 22 61 60 -10 20 -58 28
-73 13z"/>
<path d="M380 1400 l0 -180 40 0 40 0 0 60 0 60 65 0 c103 0 155 38 155 113 0
93 -54 127 -205 127 l-95 0 0 -180z m157 110 c38 0 63 -22 63 -55 0 -34 -36
-55 -92 -55 l-48 0 0 61 c0 59 1 61 23 55 12 -3 36 -6 54 -6z m-94 -162 c-15
-17 -18 -17 -26 -3 -5 9 -6 28 -2 43 l7 27 19 -24 c18 -23 19 -25 2 -43z"/>
<path d="M880 1483 c-27 -10 -70 -56 -70 -75 0 -26 62 -25 81 1 22 30 53 34
80 12 31 -26 19 -37 -55 -50 -71 -13 -103 -32 -112 -67 -16 -65 57 -111 129
-80 20 8 37 20 37 25 0 6 5 11 10 11 6 0 10 -6 10 -14 0 -7 14 -19 30 -26 24
-10 36 -10 60 0 17 7 30 15 30 19 -1 17 -18 31 -33 25 -15 -5 -17 3 -17 64 0
88 -11 117 -52 142 -32 19 -94 25 -128 13z m110 -147 c0 -22 -24 -58 -44 -66
-44 -16 -94 16 -67 43 13 13 111 33 111 23z"/>
<path d="M1265 1483 c-11 -3 -32 -16 -47 -30 l-26 -25 -4 23 c-2 19 -10 25
-35 27 l-33 3 0 -130 0 -131 40 0 40 0 0 88 c0 96 7 112 52 112 39 0 50 -28
46 -121 l-3 -79 40 0 40 0 -3 97 c-3 131 -6 142 -47 159 -19 8 -36 13 -37 13
-2 -1 -12 -3 -23 -6z"/>
<path d="M1723 1479 c-40 -12 -80 -59 -89 -104 -9 -52 15 -115 55 -142 40 -27
117 -31 161 -8 81 42 85 188 7 239 -30 20 -95 27 -134 15z m99 -76 c25 -23 24
-87 -2 -113 -24 -24 -67 -26 -92 -3 -23 21 -24 89 -1 115 20 22 70 23 95 1z"/>
<path d="M2406 1475 c-35 -18 -55 -44 -56 -67 0 -26 63 -25 81 1 21 29 53 34
79 13 31 -25 19 -39 -38 -48 -100 -14 -143 -51 -128 -109 10 -38 67 -61 117
-46 20 6 42 17 48 25 10 12 16 10 37 -11 20 -20 31 -24 57 -19 17 4 35 10 40
15 12 12 -4 42 -22 39 -13 -3 -17 10 -21 80 -5 72 -9 86 -32 109 -34 33 -117
43 -162 18z m124 -139 c0 -22 -24 -58 -44 -66 -44 -16 -86 8 -66 40 9 15 110
38 110 26z"/>
<path d="M1940 1296 l0 -186 41 0 42 0 -7 83 c-6 80 -6 81 11 61 80 -96 213
-9 188 123 -8 46 -29 77 -61 91 -43 20 -83 15 -114 -17 l-29 -28 -3 26 c-2 21
-9 27 -35 29 l-33 3 0 -185z m180 104 c42 -42 15 -120 -42 -120 -62 0 -89 70
-43 115 29 30 58 32 85 5z"/>
<path d="M2240 1350 l0 -130 40 0 40 0 0 130 0 130 -40 0 -40 0 0 -130z"/>
<path d="M380 1126 c0 -37 13 -48 24 -21 3 8 13 15 21 15 29 0 12 35 -18 38
-25 3 -27 1 -27 -32z"/>
<path d="M470 1125 c0 -28 4 -35 20 -35 11 0 20 5 20 10 0 6 -7 10 -16 10 -12
0 -15 7 -12 25 3 14 1 25 -3 25 -5 0 -9 -16 -9 -35z"/>
<path d="M543 1127 c-10 -32 -9 -33 21 -33 31 0 32 0 21 33 -5 18 -15 33 -21
33 -6 0 -15 -15 -21 -33z"/>
<path d="M620 1125 c0 -19 5 -35 10 -35 6 0 10 8 10 18 1 16 1 16 11 0 16 -29
29 -21 29 17 0 19 -4 35 -10 35 -5 0 -10 -8 -10 -17 -1 -17 -1 -17 -11 0 -16
28 -29 20 -29 -18z"/>
<path d="M714 1144 c3 -9 6 -24 6 -35 0 -10 5 -19 10 -19 6 0 10 11 10 25 0
14 5 25 10 25 6 0 10 5 10 10 0 6 -12 10 -26 10 -20 0 -25 -4 -20 -16z"/>
<path d="M880 1145 c-10 -12 -11 -21 -3 -33 12 -20 54 -23 61 -4 3 9 -3 11
-22 6 -20 -5 -26 -2 -26 11 0 13 6 16 21 12 13 -3 19 -1 16 6 -6 19 -33 19
-47 2z"/>
<path d="M977 1143 c-2 -10 -8 -25 -11 -33 -5 -13 1 -16 27 -16 34 0 34 0 24
33 -11 36 -32 44 -40 16z"/>
<path d="M1050 1126 c0 -20 5 -36 10 -36 6 0 10 8 10 18 1 16 1 16 11 0 16
-28 27 -21 25 15 -1 27 -6 32 -29 35 -25 3 -27 1 -27 -32z"/>
<path d="M1140 1125 c0 -32 3 -35 28 -35 25 1 26 2 9 14 -14 11 -15 15 -5 19
10 4 10 6 -1 6 -11 1 -10 5 5 16 18 14 18 14 -8 15 -25 0 -28 -3 -28 -35z"/>
<path d="M1304 1146 c-11 -28 0 -51 25 -51 14 0 26 5 28 11 2 6 -4 10 -14 10
-10 -1 -18 4 -18 9 0 6 8 9 18 7 11 -1 17 3 15 10 -7 19 -47 22 -54 4z"/>
<path d="M1394 1146 c-11 -28 1 -51 25 -51 32 0 49 28 32 49 -17 20 -50 21
-57 2z"/>
<path d="M1491 1123 c1 -33 2 -35 8 -13 l7 25 8 -22 c12 -36 34 -28 34 12 0
38 -18 50 -19 13 l0 -23 -11 23 c-16 33 -28 27 -27 -15z"/>
<path d="M1580 1141 c0 -11 -3 -26 -6 -35 -3 -9 -1 -16 5 -16 6 0 11 10 12 23
l0 22 11 -22 c16 -34 28 -28 27 15 -1 32 -2 34 -8 12 l-7 -25 -8 23 c-9 27
-26 29 -26 3z"/>
<path d="M1660 1125 c0 -31 3 -35 25 -35 14 0 25 5 25 10 0 6 -8 10 -17 10
-14 0 -15 2 -4 9 11 7 11 9 0 14 -10 4 -9 6 4 6 27 1 20 21 -8 21 -22 0 -25
-4 -25 -35z"/>
<path d="M1744 1146 c-11 -28 0 -51 25 -51 14 0 26 5 28 11 2 6 -4 10 -14 10
-10 -1 -18 4 -18 9 0 6 8 9 18 7 11 -1 17 3 15 10 -7 19 -47 22 -54 4z"/>
<path d="M1830 1150 c0 -5 4 -10 9 -10 4 0 6 -11 3 -25 -2 -15 0 -25 7 -25 6
0 11 11 11 25 0 14 5 25 10 25 6 0 10 5 10 10 0 6 -11 10 -25 10 -14 0 -25 -4
-25 -10z"/>
</g>
</svg>
